<?xml version="1.0" standalone="no"?>
<!DOCTYPE svg PUBLIC "-//W3C//DTD SVG 20010904//EN"
 "http://www.w3.org/TR/2001/REC-SVG-20010904/DTD/svg10.dtd">
<svg version="1.0" xmlns="http://www.w3.org/2000/svg"
 width="1024.000000pt" height="1536.000000pt" viewBox="0 0 1024.000000 1536.000000"
 preserveAspectRatio="xMidYMid meet">

<g transform="translate(0.000000,1536.000000) scale(0.100000,-0.100000)"
fill="#000000" stroke="none">
<path d="M4885 11843 c-169 -36 -272 -72 -430 -148 -316 -153 -592 -403 -798
-721 -120 -185 -232 -462 -277 -684 -12 -57 -22 -106 -24 -107 -1 -2 -40 -10
-87 -19 -349 -66 -667 -265 -861 -539 -70 -99 -140 -242 -178 -365 -29 -95
-33 -121 -37 -270 -4 -133 -2 -183 12 -255 19 -99 73 -263 110 -335 50 -99
153 -239 235 -320 161 -159 328 -260 550 -334 262 -87 117 -81 2085 -81 1874
0 1802 -2 1965 52 172 57 289 120 417 225 105 85 236 240 289 340 13 26 13 26
-11 22 -14 -2 -25 -1 -25 3 0 5 -13 14 -30 21 -16 8 -30 20 -30 27 0 8 -7 11
-20 8 -11 -3 -20 0 -20 6 0 6 -9 11 -21 11 -30 0 -149 98 -149 123 0 5 -6 7
-12 4 -16 -5 -80 28 -71 37 3 3 1 6 -6 6 -7 0 -25 13 -39 28 -15 15 -43 39
-62 52 -19 13 -41 30 -48 37 -8 7 -18 11 -23 8 -5 -4 -9 -2 -9 3 0 5 -12 15
-27 23 -16 8 -30 16 -33 19 -3 3 -26 18 -53 33 -28 17 -55 42 -67 65 -29 54
-42 73 -67 99 -12 12 -24 32 -28 43 -4 12 -9 19 -13 16 -5 -6 -71 39 -85 58
-4 6 -5 19 -3 29 5 20 -48 77 -70 77 -8 0 -14 5 -14 10 0 6 -4 10 -10 10 -5 0
-26 11 -46 25 -20 14 -45 25 -55 25 -10 0 -26 11 -37 25 -14 17 -22 21 -25 13
-9 -22 -27 13 -27 53 0 19 -4 39 -9 45 -5 5 -11 20 -14 34 -3 16 -5 9 -6 -18
0 -24 2 -41 7 -39 11 8 -5 -243 -23 -338 -62 -335 -282 -699 -559 -928 -54
-45 -112 -90 -130 -100 l-31 -19 30 26 c26 22 27 25 7 20 -15 -4 -24 -1 -28
10 -3 9 -10 16 -16 16 -5 0 -24 11 -42 25 -18 14 -40 25 -49 25 -10 0 -17 4
-17 8 0 17 -62 11 -103 -9 -23 -12 -40 -19 -37 -17 3 3 50 42 105 86 478 385
719 929 605 1367 -41 160 -148 348 -275 484 -57 60 -218 191 -237 191 -48 0
110 112 240 170 39 18 69 36 67 40 -3 5 3 6 13 3 10 -2 34 3 53 11 33 15 31
15 -36 0 l-20 -5 20 13 c15 10 21 26 22 64 2 28 9 67 16 85 9 24 11 70 7 162
-4 112 -7 130 -24 143 -20 14 -20 14 0 15 16 0 15 2 -6 11 -43 18 -372 14
-470 -5 -128 -26 -254 -62 -373 -107 -115 -43 -121 -45 -113 -31 3 5 -6 21
-19 35 -26 28 -27 33 -30 104 0 24 -7 47 -13 51 -18 11 -43 99 -31 107 11 6
-14 51 -38 69 -8 6 -16 26 -20 45 -3 19 -9 43 -14 52 -5 9 -9 24 -9 33 0 8
-11 32 -25 53 -15 23 -27 58 -30 90 -4 35 -19 78 -45 127 -39 72 -40 78 -40
170 0 52 -4 95 -9 95 -5 0 -8 12 -7 26 2 18 12 31 32 40 29 13 26 15 -11 7z
m7 -1185 c0 -13 2 -27 3 -33 2 -5 3 -18 4 -27 1 -12 6 -15 19 -11 9 3 -3 -9
-28 -27 -315 -231 -493 -416 -643 -669 -131 -219 -194 -479 -168 -688 41 -340
274 -652 606 -813 196 -96 423 -129 645 -95 l35 5 -44 -21 c-24 -11 -87 -32
-140 -47 -87 -23 -113 -26 -291 -26 -173 -1 -204 2 -280 22 -420 114 -837 419
-1200 877 -104 132 -232 340 -284 465 l-14 35 31 -1 c41 -1 56 8 127 79 33 31
66 57 74 57 9 0 16 8 16 18 0 9 22 -46 48 -123 84 -251 219 -454 451 -682 74
-73 136 -131 138 -129 2 1 -10 35 -26 73 -114 278 -127 584 -35 875 75 238
245 501 421 651 72 62 204 149 269 178 71 31 215 78 242 79 16 0 22 -6 24 -22z
m496 -780 c36 -30 34 -42 -54 -345 -48 -164 -108 -372 -135 -463 -81 -281 -92
-311 -120 -332 -23 -18 -30 -18 -69 -7 -78 23 -78 31 -16 245 166 569 264 886
280 905 15 18 25 20 59 15 23 -4 47 -12 55 -18z m-563 -204 c64 -69 52 -89
-135 -229 -88 -66 -160 -124 -160 -130 0 -5 75 -65 165 -133 175 -130 179
-135 150 -192 -17 -32 -43 -50 -73 -50 -18 0 -293 197 -399 287 -46 39 -53 49
-53 81 0 20 4 43 8 50 5 7 100 86 213 177 222 179 239 187 284 139z m993 -121
c253 -197 254 -198 250 -247 -3 -46 -18 -59 -283 -255 -170 -125 -194 -133
-239 -80 -46 55 -37 79 55 146 156 111 253 188 253 198 0 5 -72 64 -160 130
-151 115 -159 123 -157 154 2 40 47 91 81 91 15 0 86 -49 200 -137z m2023
-1276 c-10 -9 -11 -8 -5 6 3 10 9 15 12 12 3 -3 0 -11 -7 -18z"/>
<path d="M3385 7164 c-33 -14 -97 -39 -143 -56 -87 -32 -107 -52 -92 -93 14
-38 36 -32 338 92 8 4 12 19 10 42 -3 30 -7 36 -28 38 -14 2 -52 -9 -85 -23z"/>
<path d="M6547 6981 c-76 -32 -143 -63 -148 -68 -15 -15 -7 -64 11 -76 11 -7
58 8 170 55 144 59 155 65 158 91 4 32 -13 57 -37 56 -9 0 -78 -27 -154 -58z"/>
<path d="M3395 6938 c-82 -29 -241 -92 -252 -101 -17 -12 -19 -1421 -3 -1479
18 -63 70 -129 130 -162 l55 -31 326 -3 c348 -3 338 -4 465 48 28 12 33 11 75
-21 186 -142 466 -143 662 -3 l49 36 62 -29 61 -28 285 -3 285 -3 68 34 c58
29 70 32 85 21 9 -7 45 -23 79 -34 57 -20 81 -21 245 -18 176 3 185 4 239 31
l56 27 59 -27 c58 -28 62 -28 259 -28 198 0 201 0 260 28 l61 28 59 -28 60
-28 314 -3 c347 -3 373 0 444 59 56 46 86 105 96 190 14 118 8 1476 -6 1490
-20 20 -312 -90 -335 -125 -4 -6 -8 -295 -8 -643 l0 -632 -22 -15 c-18 -13
-56 -16 -204 -16 -168 0 -183 1 -208 21 l-26 20 0 309 c0 200 -4 311 -10 315
-18 11 -299 -92 -332 -122 -16 -15 -18 -41 -18 -264 l0 -249 -25 -16 c-38 -25
-211 -17 -231 10 -11 16 -14 74 -14 303 0 247 -2 284 -15 290 -20 7 -313 -105
-337 -129 -16 -16 -18 -41 -18 -237 0 -264 7 -251 -131 -251 -72 0 -91 3 -113
21 l-26 20 0 250 c0 211 -2 250 -15 255 -18 7 -304 -105 -327 -128 -16 -16
-18 -40 -18 -202 0 -180 -1 -185 -22 -200 -18 -13 -55 -16 -199 -16 -99 0
-189 5 -207 11 -42 14 -50 43 -55 189 -6 185 -51 297 -163 405 -193 184 -565
179 -750 -10 -103 -106 -151 -229 -161 -414 -6 -106 -8 -116 -34 -145 l-27
-31 -197 -3 c-193 -3 -198 -3 -221 19 l-24 22 0 719 0 718 -27 -1 c-16 0 -41
-5 -58 -11z m1196 -1060 c57 -19 91 -49 116 -104 33 -72 36 -189 6 -255 -67
-151 -290 -158 -371 -12 -50 91 -36 241 30 316 51 59 141 82 219 55z"/>
<path d="M8461 6880 c-140 -49 -210 -86 -216 -112 -3 -13 -4 -378 -3 -813 l3
-790 170 0 170 0 3 850 c2 467 1 859 -3 872 -7 30 -22 29 -124 -7z"/>
<path d="M6615 6766 c-15 -11 -20 -31 -24 -104 -6 -97 -24 -132 -66 -132 -46
0 -60 23 -65 112 l-5 83 -37 3 c-45 4 -53 -9 -61 -96 -3 -34 -13 -74 -22 -88
-21 -33 -62 -48 -92 -35 -20 9 -22 18 -25 93 -3 80 -4 83 -30 92 -22 8 -32 6
-48 -9 -29 -27 -29 -175 0 -223 22 -36 72 -62 117 -62 36 1 104 32 130 59 l20
22 37 -22 c44 -26 119 -28 163 -6 56 29 79 86 86 215 4 64 2 86 -10 97 -18 19
-44 19 -68 1z"/>
<path d="M2292 6205 c-172 -39 -297 -165 -347 -351 -17 -60 -23 -273 -11 -330
6 -28 5 -29 -66 -52 -127 -40 -213 -123 -262 -254 -40 -105 -47 -191 -44 -488
l3 -275 45 3 c103 6 243 72 287 135 28 40 28 40 33 246 5 196 6 208 29 245 45
72 66 76 397 74 275 -1 292 0 346 21 168 65 260 253 245 499 -12 170 -58 292
-150 390 -61 64 -115 97 -200 124 -82 25 -224 32 -305 13z m193 -326 c62 -17
110 -73 125 -142 22 -109 -6 -194 -80 -245 -30 -20 -44 -23 -102 -20 -74 4
-107 21 -145 77 -49 72 -37 214 24 282 49 54 103 69 178 48z"/>
<path d="M2944 4456 c-3 -7 -4 -118 -2 -245 l3 -233 29 -24 c40 -35 90 -30 94
9 2 15 -1 27 -7 27 -5 0 -17 7 -25 16 -14 13 -16 49 -16 240 l0 224 -35 0
c-21 0 -38 -6 -41 -14z"/>
<path d="M2560 4307 c-38 -10 -45 -16 -45 -37 0 -25 0 -25 83 -21 95 4 112 -5
112 -55 l0 -34 -58 0 c-118 0 -186 -65 -161 -155 19 -69 113 -96 192 -56 31
16 39 17 43 6 8 -20 31 -26 59 -15 22 8 23 12 14 42 -5 18 -9 85 -9 149 0 102
-3 119 -20 142 -35 44 -118 58 -210 34z m150 -235 c0 -24 -7 -45 -17 -55 -49
-44 -123 -24 -123 34 0 24 6 33 33 44 17 8 49 14 70 15 36 0 37 -1 37 -38z"/>
<path d="M3244 4309 c-49 -14 -79 -54 -79 -104 0 -57 22 -79 104 -106 76 -25
91 -35 91 -60 0 -44 -70 -61 -145 -34 -43 15 -55 9 -55 -31 0 -17 9 -24 44
-33 96 -24 186 -7 220 40 9 13 16 42 16 65 0 56 -31 88 -106 109 -76 22 -101
44 -84 75 11 20 18 22 88 18 76 -3 77 -3 77 22 0 20 -8 28 -35 37 -41 14 -93
15 -136 2z"/>
<path d="M3625 4306 c-43 -19 -66 -49 -72 -95 -5 -35 -2 -44 24 -70 19 -18 53
-36 89 -46 32 -10 65 -22 72 -27 33 -27 -6 -78 -59 -78 -15 0 -46 7 -70 15
-47 17 -62 9 -57 -30 6 -41 148 -60 214 -29 56 27 80 95 52 147 -17 32 -37 45
-100 63 -68 20 -94 43 -79 72 13 25 56 33 110 21 49 -11 61 -6 61 25 0 20 -8
26 -44 35 -58 14 -104 13 -141 -3z"/>
<path d="M4030 4298 c-67 -35 -92 -90 -88 -190 3 -82 17 -112 71 -152 34 -25
123 -33 183 -16 50 14 61 28 45 58 -10 19 -13 19 -62 5 -71 -21 -120 -7 -143
41 -9 19 -16 39 -16 45 0 7 41 11 126 11 l127 0 -6 62 c-8 93 -58 148 -144
155 -37 3 -59 -1 -93 -19z m114 -49 c21 -10 46 -53 46 -80 0 -5 -38 -9 -85 -9
-47 0 -85 2 -85 4 0 23 28 70 49 81 32 18 43 18 75 4z"/>
<path d="M4517 4297 c-44 -23 -46 -23 -51 -5 -3 15 -12 19 -38 16 l-33 -3 -3
-182 -2 -183 40 0 40 0 0 126 c0 125 0 126 29 155 33 32 75 38 107 15 17 -13
19 -29 22 -155 l4 -141 39 0 39 0 0 134 c0 133 0 135 26 155 32 25 86 27 108
5 13 -12 16 -41 16 -155 l0 -139 40 0 c47 0 44 -11 40 185 -1 78 -7 129 -16
147 -27 52 -141 62 -198 17 l-25 -19 -37 25 c-46 31 -87 32 -147 2z"/>
<path d="M5140 4307 c-25 -7 -45 -18 -44 -24 3 -42 1 -41 84 -36 92 7 110 -2
110 -53 l0 -34 -57 0 c-118 0 -189 -66 -163 -152 21 -72 125 -103 197 -59 27
17 32 18 37 5 8 -21 83 -15 77 6 -3 8 -7 79 -10 156 -5 120 -9 145 -25 163
-35 39 -119 50 -206 28z m150 -235 c0 -45 -21 -69 -68 -78 -52 -10 -91 41 -64
83 11 18 52 32 95 32 36 1 37 0 37 -37z"/>
<path d="M5660 4309 c-13 -5 -33 -17 -43 -26 -17 -16 -18 -15 -24 5 -4 17 -13
22 -39 22 l-34 0 0 -184 c0 -199 1 -204 56 -190 24 6 24 7 24 139 0 132 0 134
26 154 36 28 88 28 108 -1 13 -18 16 -51 16 -155 l0 -133 40 0 40 0 0 124 c0
68 3 132 6 141 15 37 109 60 132 32 7 -8 13 -71 14 -153 l3 -139 40 0 40 0 3
128 c3 155 -7 201 -51 227 -43 27 -94 25 -152 -5 l-49 -24 -23 20 c-25 25 -96
34 -133 18z"/>
<path d="M6546 4310 c-37 -12 -85 -56 -102 -97 -35 -81 -5 -211 58 -257 58
-42 218 -26 218 21 0 37 -13 43 -59 27 -53 -18 -103 -5 -128 33 -33 50 -17
167 26 200 19 15 100 17 121 3 19 -12 40 6 40 36 0 18 -8 25 -37 33 -45 13
-96 13 -137 1z"/>
<path d="M6923 4301 c-140 -64 -131 -314 14 -362 49 -16 138 -7 171 18 73 54
96 184 49 274 -42 80 -144 110 -234 70z m142 -77 c43 -46 45 -146 4 -198 -43
-54 -127 -38 -149 30 -18 55 -8 139 20 169 33 35 92 35 125 -1z"/>
<path d="M7427 4296 c-45 -22 -47 -22 -47 -4 0 16 -6 19 -37 16 l-38 -3 -2
-182 c-2 -199 -2 -198 57 -186 l30 6 0 133 c0 131 0 133 26 153 36 28 88 28
108 -1 13 -18 16 -51 16 -155 l0 -133 40 0 40 0 0 129 0 129 31 27 c24 20 41
25 68 23 52 -4 61 -29 61 -180 l0 -128 40 0 40 0 0 143 c0 115 -3 149 -18 177
-36 72 -128 80 -215 18 -12 -9 -20 -10 -25 -2 -32 47 -105 56 -175 20z"/>
<path d="M6226 4014 c-19 -18 -21 -55 -4 -72 7 -7 24 -12 38 -12 14 0 31 5 38
12 7 7 12 24 12 38 0 14 -5 31 -12 38 -17 17 -54 15 -72 -4z"/>
</g>
</svg>
